PathFileType	4	(X/Y/Z)	S:\OneDrive - The University of Tokyo\ìåëÂéˆã∆\ÉoÉCÉÅÉJ\ë™íË\hirabayashi_2\Trimmed\Trimmed_Trimmed_ShSs3-Bar.trc
DataRate	CameraRate	NumFrames	NumMarkers	Units	OrigDataRate	OrigDataStartFrame	OrigNumFrames
200.00	200.00	      24	12	mm	200.00	1289	      1718
Frame#	Time	BarR0			BarR50			BarR100			BarR130			BarR180			BarR230			BarL0			BarL50			BarL100			BarL130			BarL180			BarL230			
		X1	Y1	Z1	X2	Y2	Z2	X3	Y3	Z3	X4	Y4	Z4	X5	Y5	Z5	X6	Y6	Z6	X7	Y7	Z7	X8	Y8	Z8	X9	Y9	Z9	X10	Y10	Z10	X11	Y11	Z11	X12	Y12	Z12	

1289	6.440	-574.39398	2753.96997	1663.99280	-597.82898	2304.59814	1653.36707	-628.69989	1850.88306	1647.18469	-652.78918	1348.65283	1646.75940	-682.71045	902.45642	1653.88940	-710.43140	454.95557	1663.98486	-1116.36206	2807.01465	1664.34265	-1146.26978	2355.54590	1657.69202	-1179.40894	1905.79138	1651.76965	-1207.32776	1404.65613	1651.51379	-1231.21851	953.24561	1657.61902	-1246.44812	506.94818	1667.31445	
1290	6.445	-574.39105	2753.96167	1663.99158	-597.83630	2304.57617	1653.38660	-628.68835	1850.87695	1647.21716	-652.77258	1348.65015	1646.81628	-682.72089	902.46558	1653.89172	-710.40387	454.95987	1663.97900	-1116.36963	2807.01880	1664.33765	-1146.24548	2355.56372	1657.69092	-1179.39941	1905.77881	1651.79358	-1207.31201	1404.63940	1651.53491	-1231.18762	953.24817	1657.63782	-1246.44788	506.95593	1667.29785	
1291	6.450	-574.40173	2753.98096	1663.99402	-597.81879	2304.57764	1653.40881	-628.67401	1850.86023	1647.27380	-652.75446	1348.67456	1646.82214	-682.68524	902.46014	1653.89832	-710.41205	454.97388	1663.98462	-1116.33740	2807.00342	1664.33594	-1146.23535	2355.56982	1657.68372	-1179.35583	1905.80542	1651.80811	-1207.28027	1404.66309	1651.56714	-1231.18298	953.23798	1657.65051	-1246.43750	506.95972	1667.30762	
1292	6.455	-574.39331	2753.97852	1663.98718	-597.79254	2304.58130	1653.44202	-628.65936	1850.87793	1647.31323	-652.75433	1348.68213	1646.87659	-682.67120	902.47363	1653.93774	-710.39160	454.95886	1663.96521	-1116.33032	2807.00415	1664.33789	-1146.21594	2355.51978	1657.71680	-1179.34607	1905.79260	1651.83203	-1207.24768	1404.68896	1651.57166	-1231.18970	953.25677	1657.65967	-1246.41797	506.95724	1667.30920	
1293	6.460	-574.38739	2753.98853	1663.98950	-597.80853	2304.60327	1653.42908	-628.63940	1850.85730	1647.31335	-652.73773	1348.68054	1646.89526	-682.66632	902.44849	1653.93201	-710.39502	454.98434	1663.98999	-1116.34363	2807.03687	1664.34900	-1146.23633	2355.53125	1657.72888	-1179.34949	1905.78955	1651.84204	-1207.24951	1404.67871	1651.58777	-1231.18323	953.25879	1657.67981	-1246.43396	506.95313	1667.29077	
1294	6.465	-574.37231	2753.97290	1663.97485	-597.79968	2304.59253	1653.47693	-628.65613	1850.89417	1647.35779	-652.74255	1348.67151	1646.92578	-682.68115	902.40704	1653.96191	-710.38422	454.99335	1663.99158	-1116.35107	2807.00610	1664.33850	-1146.22168	2355.54858	1657.72473	-1179.34387	1905.78870	1651.85095	-1207.24329	1404.70740	1651.60193	-1231.19275	953.27020	1657.68103	-1246.42578	506.96790	1667.31250	
1295	6.470	-574.38025	2753.98120	1663.98120	-597.81323	2304.58105	1653.47070	-628.67206	1850.87354	1647.38220	-652.78766	1348.68762	1646.95422	-682.71075	902.42554	1653.99622	-710.38708	454.95496	1663.98938	-1116.32141	2807.01636	1664.33826	-1146.25061	2355.55688	1657.73376	-1179.34863	1905.79907	1651.85950	-1207.26453	1404.67004	1651.62061	-1231.20483	953.24603	1657.68933	-1246.44226	506.94608	1667.31628	
1296	6.475	-574.38013	2753.96655	1663.98303	-597.82806	2304.59399	1653.49878	-628.69684	1850.88721	1647.39819	-652.81519	1348.64526	1646.96753	-682.71472	902.45886	1653.99792	-710.41827	454.95956	1663.97913	-1116.34839	2807.04004	1664.34937	-1146.24902	2355.57104	1657.74060	-1179.38440	1905.81384	1651.87305	-1207.25281	1404.68726	1651.61694	-1231.22351	953.26105	1657.70703	-1246.44775	506.97751	1667.29639	
1297	6.480	-574.39252	2753.97412	1663.97034	-597.82562	2304.62036	1653.52490	-628.73297	1850.87952	1647.45618	-652.83423	1348.64063	1646.98279	-682.75110	902.43811	1654.01428	-710.42297	454.95859	1663.98950	-1116.31238	2807.07031	1664.33801	-1146.25354	2355.56274	1657.72986	-1179.35059	1905.80835	1651.87524	-1207.27954	1404.71106	1651.62378	-1231.23389	953.25513	1657.69922	-1246.42419	506.99207	1667.31201	
1298	6.485	-574.39746	2753.99561	1663.97839	-597.85333	2304.60229	1653.52014	-628.75250	1850.89954	1647.49207	-652.86755	1348.66443	1647.03491	-682.78351	902.46918	1654.02417	-710.43146	454.94348	1663.97583	-1116.34448	2807.03125	1664.33459	-1146.26123	2355.56812	1657.73083	-1179.41016	1905.81396	1651.87891	-1207.30054	1404.70056	1651.62842	-1231.23486	953.25305	1657.69653	-1246.44373	506.97644	1667.31262	
1299	6.490	-574.40881	2754.00464	1663.97974	-597.84131	2304.60693	1653.53650	-628.77820	1850.90491	1647.51392	-652.89673	1348.66785	1647.05579	-682.78778	902.44409	1654.03381	-710.42175	454.97244	1663.98657	-1116.38904	2807.03882	1664.33350	-1146.28040	2355.55566	1657.75024	-1179.42065	1905.82068	1651.87817	-1207.31836	1404.71143	1651.62817	-1231.27051	953.23517	1657.70349	-1246.43677	506.96448	1667.30103	
1300	6.495	-574.42242	2753.98560	1663.98657	-597.87531	2304.63379	1653.56738	-628.80438	1850.87976	1647.52014	-652.93085	1348.64038	1647.09485	-682.82947	902.44659	1654.04517	-710.46387	454.96707	1663.99036	-1116.36218	2807.02979	1664.32275	-1146.28650	2355.54346	1657.75171	-1179.43176	1905.80286	1651.88379	-1207.31665	1404.71655	1651.63867	-1231.26709	953.25940	1657.70093	-1246.44849	506.97989	1667.30164	
1301	6.500	-574.44525	2754.01563	1663.98389	-597.87708	2304.63477	1653.56445	-628.81946	1850.89954	1647.56494	-652.96686	1348.66687	1647.11169	-682.84381	902.45526	1654.07861	-710.45465	454.95276	1663.98889	-1116.36890	2807.00928	1664.33521	-1146.32056	2355.57300	1657.74255	-1179.43140	1905.80029	1651.87024	-1207.32080	1404.69617	1651.62830	-1231.26611	953.24933	1657.71082	-1246.44824	506.96408	1667.30676	
1302	6.505	-574.44476	2754.00488	1663.97595	-597.86859	2304.61377	1653.58594	-628.83270	1850.87036	1647.61267	-652.96655	1348.62292	1647.14099	-682.85663	902.43231	1654.08691	-710.45313	454.95825	1663.98828	-1116.36047	2807.01318	1664.33972	-1146.31665	2355.55151	1657.74866	-1179.42566	1905.79724	1651.86450	-1207.32776	1404.69983	1651.62585	-1231.25330	953.26843	1657.71289	-1246.44690	506.96008	1667.30518	
1303	6.510	-574.43420	2754.01587	1663.99902	-597.88306	2304.64917	1653.60791	-628.84259	1850.88940	1647.59778	-652.95441	1348.64868	1647.15613	-682.82263	902.47394	1654.08777	-710.45190	454.96167	1663.97986	-1116.37256	2807.03027	1664.33740	-1146.30298	2355.56421	1657.75708	-1179.43152	1905.79590	1651.88672	-1207.30981	1404.69727	1651.63940	-1231.27979	953.25519	1657.71851	-1246.44434	506.96582	1667.29553	
1304	6.515	-574.41498	2753.98901	1663.98315	-597.86371	2304.59692	1653.58850	-628.84015	1850.85681	1647.58423	-652.93500	1348.64856	1647.16443	-682.84827	902.46252	1654.08899	-710.43781	454.94864	1663.99304	-1116.37476	2807.01514	1664.33838	-1146.27576	2355.55200	1657.73865	-1179.41382	1905.80957	1651.88184	-1207.31396	1404.68054	1651.61926	-1231.26514	953.22852	1657.72473	-1246.44446	506.94141	1667.31702	
1305	6.520	-574.43066	2753.97925	1663.98254	-597.86023	2304.63916	1653.59277	-628.82349	1850.87573	1647.59363	-652.94250	1348.64880	1647.15479	-682.80573	902.43823	1654.08606	-710.44922	454.94421	1663.98877	-1116.38464	2807.04956	1664.33936	-1146.26086	2355.56323	1657.75366	-1179.41943	1905.81348	1651.87622	-1207.29626	1404.70691	1651.62939	-1231.25000	953.23767	1657.70508	-1246.45496	506.94797	1667.30652	
1306	6.525	-574.40771	2753.98779	1663.96863	-597.84521	2304.61719	1653.59131	-628.77710	1850.89502	1647.58716	-652.87170	1348.65430	1647.15552	-682.81091	902.44788	1654.07373	-710.43353	454.94659	1663.97852	-1116.36865	2807.04077	1664.33679	-1146.26770	2355.54858	1657.73816	-1179.39368	1905.81030	1651.87415	-1207.28723	1404.70557	1651.62646	-1231.26831	953.25427	1657.70410	-1246.45374	506.95920	1667.30615	
1307	6.530	-574.39758	2754.00269	1663.96863	-597.82745	2304.61963	1653.58228	-628.74878	1850.87415	1647.60229	-652.89148	1348.64600	1647.15479	-682.78943	902.46307	1654.09753	-710.44183	454.95908	1663.97485	-1116.37439	2807.04858	1664.31995	-1146.28125	2355.54614	1657.73792	-1179.39063	1905.80920	1651.85083	-1207.30249	1404.68872	1651.62585	-1231.23584	953.23529	1657.70105	-1246.44678	506.95905	1667.30396	
1308	6.535	-574.38733	2753.98706	1663.99011	-597.82953	2304.59766	1653.57739	-628.74121	1850.86768	1647.59277	-652.85150	1348.63208	1647.15125	-682.77423	902.45660	1654.08020	-710.44824	454.95676	1663.98572	-1116.34656	2807.03198	1664.32483	-1146.26172	2355.53442	1657.73547	-1179.38281	1905.82166	1651.87036	-1207.27710	1404.70874	1651.61292	-1231.22473	953.26886	1657.68054	-1246.43396	506.96790	1667.29871	
1309	6.540	-574.40173	2754.01367	1663.96802	-597.82916	2304.63086	1653.60327	-628.72455	1850.85767	1647.61023	-652.83069	1348.67859	1647.13916	-682.75549	902.47443	1654.09204	-710.45300	454.96686	1663.99133	-1116.35474	2807.00952	1664.33618	-1146.24780	2355.55493	1657.73938	-1179.36157	1905.81287	1651.86218	-1207.28284	1404.70044	1651.61255	-1231.21570	953.28052	1657.69519	-1246.45154	506.94473	1667.29968	
1310	6.545	-574.41205	2753.99121	1663.98352	-597.82910	2304.62720	1653.57031	-628.72998	1850.87732	1647.56958	-652.81049	1348.68445	1647.13647	-682.76703	902.45258	1654.07629	-710.44543	454.95978	1663.99280	-1116.34399	2807.00830	1664.34277	-1146.23340	2355.54126	1657.74268	-1179.38550	1905.81201	1651.86646	-1207.27039	1404.68335	1651.60193	-1231.19873	953.25323	1657.68457	-1246.45007	506.97461	1667.30457	
1311	6.550	-574.40314	2753.99170	1663.98865	-597.82465	2304.62231	1653.56641	-628.71411	1850.88574	1647.56323	-652.81494	1348.64697	1647.11450	-682.74866	902.45190	1654.07446	-710.42261	454.96576	1663.99060	-1116.33337	2807.04224	1664.34009	-1146.24487	2355.57324	1657.72180	-1179.34375	1905.80310	1651.85181	-1207.27783	1404.72461	1651.60400	-1231.17175	953.27405	1657.67456	-1246.41370	506.96814	1667.30994	
1312	6.555	-574.40796	2754.01929	1663.98242	-597.80841	2304.61108	1653.54675	-628.68811	1850.92737	1647.51282	-652.81555	1348.67041	1647.09216	-682.75684	902.43951	1654.06177	-710.41162	454.95697	1663.97632	-1116.33887	2807.04541	1664.35693	-1146.25427	2355.57373	1657.72534	-1179.36401	1905.80688	1651.84302	-1207.25232	1404.67517	1651.59265	-1231.19153	953.25891	1657.66711	-1246.42590	506.96365	1667.31531	
